<svg xmlns="http://www.w3.org/2000/svg" xmlns:xlink="http://www.w3.org/1999/xlink" width="74" zoomAndPan="magnify" viewBox="0 0 55.5 76.499999" height="102" preserveAspectRatio="xMidYMid meet" version="1.0"><defs><g/><clipPath id="faa0cb834c"><path d="M 4.570312 11 L 49.910156 11 L 49.910156 65.261719 L 4.570312 65.261719 Z M 4.570312 11 " clip-rule="nonzero"/></clipPath><clipPath id="b8dca55e1f"><path d="M 20.917969 11 L 33.714844 11 C 38.050781 11 42.207031 12.722656 45.273438 15.789062 C 48.339844 18.855469 50.0625 23.011719 50.0625 27.347656 L 50.0625 48.980469 C 50.0625 53.316406 48.339844 57.476562 45.273438 60.542969 C 42.207031 63.609375 38.050781 65.332031 33.714844 65.332031 L 20.917969 65.332031 C 16.582031 65.332031 12.425781 63.609375 9.359375 60.542969 C 6.292969 57.476562 4.570312 53.316406 4.570312 48.980469 L 4.570312 27.347656 C 4.570312 23.011719 6.292969 18.855469 9.359375 15.789062 C 12.425781 12.722656 16.582031 11 20.917969 11 Z M 20.917969 11 " clip-rule="nonzero"/></clipPath><clipPath id="3dbb171a6a"><path d="M 31.324219 9.515625 L 33.714844 9.515625 C 36.125 9.515625 38.441406 9.984375 40.660156 10.921875 L 39.503906 13.660156 C 37.652344 12.878906 35.722656 12.488281 33.714844 12.488281 L 31.324219 12.488281 Z M 42.125 11.621094 C 43.679688 12.453125 45.078125 13.492188 46.324219 14.738281 C 47.40625 15.820312 48.335938 17.023438 49.109375 18.34375 L 46.542969 19.84375 C 45.898438 18.746094 45.125 17.742188 44.222656 16.839844 C 43.183594 15.800781 42.019531 14.9375 40.722656 14.242188 Z M 49.863281 19.78125 C 50.988281 22.179688 51.550781 24.703125 51.550781 27.347656 L 51.550781 29.117188 L 48.574219 29.117188 L 48.574219 27.347656 C 48.574219 25.144531 48.109375 23.042969 47.171875 21.042969 Z M 51.550781 30.601562 L 51.550781 39.523438 L 48.574219 39.523438 L 48.574219 30.601562 Z M 51.550781 41.007812 L 51.550781 48.980469 C 51.550781 49.328125 51.539062 49.675781 51.519531 50.019531 L 48.550781 49.847656 C 48.566406 49.558594 48.574219 49.269531 48.574219 48.980469 L 48.574219 41.007812 Z M 51.351562 51.632812 C 50.855469 54.933594 49.535156 57.859375 47.398438 60.417969 L 45.117188 58.511719 C 46.898438 56.378906 47.996094 53.941406 48.410156 51.191406 Z M 46.285156 61.632812 C 43.914062 63.988281 41.101562 65.554688 37.851562 66.332031 L 37.160156 63.4375 C 39.871094 62.792969 42.214844 61.488281 44.191406 59.523438 Z M 36.257812 66.632812 C 35.414062 66.757812 34.566406 66.816406 33.714844 66.816406 L 27.125 66.816406 L 27.125 63.84375 L 33.714844 63.84375 C 34.425781 63.84375 35.132812 63.792969 35.832031 63.691406 Z M 25.640625 66.816406 L 20.917969 66.816406 C 19.378906 66.816406 17.867188 66.621094 16.378906 66.230469 L 17.136719 63.355469 C 18.375 63.679688 19.636719 63.84375 20.917969 63.84375 L 25.640625 63.84375 Z M 14.828125 65.746094 C 12.347656 64.84375 10.175781 63.460938 8.308594 61.59375 C 7.832031 61.117188 7.386719 60.617188 6.96875 60.09375 L 9.292969 58.242188 C 9.644531 58.679688 10.015625 59.09375 10.410156 59.492188 C 11.964844 61.046875 13.777344 62.199219 15.84375 62.949219 Z M 6.011719 58.773438 C 4.183594 55.988281 3.210938 52.933594 3.09375 49.605469 L 6.066406 49.5 C 6.164062 52.273438 6.972656 54.820312 8.496094 57.140625 Z M 3.082031 48.0625 L 3.082031 39.140625 L 6.058594 39.140625 L 6.058594 48.0625 Z M 3.082031 37.65625 L 3.082031 28.734375 L 6.058594 28.734375 L 6.058594 37.65625 Z M 3.082031 27.238281 C 3.105469 23.90625 3.988281 20.824219 5.738281 17.988281 L 8.269531 19.546875 C 6.8125 21.910156 6.074219 24.480469 6.058594 27.257812 Z M 6.65625 16.640625 C 7.160156 15.96875 7.710938 15.332031 8.308594 14.738281 C 10.050781 12.996094 12.066406 11.671875 14.355469 10.765625 L 15.449219 13.53125 C 13.542969 14.285156 11.859375 15.390625 10.410156 16.839844 C 9.914062 17.335938 9.453125 17.863281 9.035156 18.425781 Z M 15.890625 10.238281 C 17.53125 9.753906 19.207031 9.515625 20.917969 9.515625 L 29.839844 9.515625 L 29.839844 12.488281 L 20.917969 12.488281 C 19.492188 12.488281 18.097656 12.6875 16.726562 13.089844 Z M 15.890625 10.238281 " clip-rule="nonzero"/></clipPath><linearGradient x1="-2.114001" gradientTransform="matrix(1.045047, 0, 0, 1.045047, 4.570057, 11.000345)" y1="2.113999" x2="45.540407" gradientUnits="userSpaceOnUse" y2="49.768408" id="be43e45275"><stop stop-opacity="1" stop-color="rgb(0%, 0%, 0%)" offset="0"/><stop stop-opacity="1" stop-color="rgb(0.305176%, 0.221252%, 0.0335693%)" offset="0.00390625"/><stop stop-opacity="1" stop-color="rgb(0.610352%, 0.442505%, 0.0671387%)" offset="0.0078125"/><stop stop-opacity="1" stop-color="rgb(0.915527%, 0.663757%, 0.100708%)" offset="0.0117188"/><stop stop-opacity="1" stop-color="rgb(1.222229%, 0.88501%, 0.134277%)" offset="0.015625"/><stop stop-opacity="1" stop-color="rgb(1.527405%, 1.106262%, 0.167847%)" offset="0.0195312"/><stop stop-opacity="1" stop-color="rgb(1.834106%, 1.329041%, 0.201416%)" offset="0.0234375"/><stop stop-opacity="1" stop-color="rgb(2.139282%, 1.550293%, 0.234985%)" offset="0.0273438"/><stop stop-opacity="1" stop-color="rgb(2.444458%, 1.771545%, 0.268555%)" offset="0.03125"/><stop stop-opacity="1" stop-color="rgb(2.749634%, 1.992798%, 0.302124%)" offset="0.0351562"/><stop stop-opacity="1" stop-color="rgb(3.056335%, 2.215576%, 0.335693%)" offset="0.0390625"/><stop stop-opacity="1" stop-color="rgb(3.361511%, 2.436829%, 0.369263%)" offset="0.0429688"/><stop stop-opacity="1" stop-color="rgb(3.668213%, 2.658081%, 0.402832%)" offset="0.046875"/><stop stop-opacity="1" stop-color="rgb(3.973389%, 2.879333%, 0.436401%)" offset="0.0507813"/><stop stop-opacity="1" stop-color="rgb(4.278564%, 3.102112%, 0.469971%)" offset="0.0546875"/><stop stop-opacity="1" stop-color="rgb(4.58374%, 3.323364%, 0.50354%)" offset="0.0585938"/><stop stop-opacity="1" stop-color="rgb(4.890442%, 3.544617%, 0.537109%)" offset="0.0625"/><stop stop-opacity="1" stop-color="rgb(5.195618%, 3.765869%, 0.570679%)" offset="0.0664063"/><stop stop-opacity="1" stop-color="rgb(5.502319%, 3.988647%, 0.604248%)" offset="0.0703125"/><stop stop-opacity="1" stop-color="rgb(5.807495%, 4.2099%, 0.637817%)" offset="0.0742188"/><stop stop-opacity="1" stop-color="rgb(6.112671%, 4.431152%, 0.671387%)" offset="0.078125"/><stop stop-opacity="1" stop-color="rgb(6.417847%, 4.652405%, 0.704956%)" offset="0.0820313"/><stop stop-opacity="1" stop-color="rgb(6.724548%, 4.875183%, 0.738525%)" offset="0.0859375"/><stop stop-opacity="1" stop-color="rgb(7.029724%, 5.096436%, 0.772095%)" offset="0.0898438"/><stop stop-opacity="1" stop-color="rgb(7.336426%, 5.317688%, 0.80719%)" offset="0.09375"/><stop stop-opacity="1" stop-color="rgb(7.641602%, 5.53894%, 0.840759%)" offset="0.0976563"/><stop stop-opacity="1" stop-color="rgb(7.946777%, 5.761719%, 0.874329%)" offset="0.101562"/><stop stop-opacity="1" stop-color="rgb(8.251953%, 5.982971%, 0.907898%)" offset="0.105469"/><stop stop-opacity="1" stop-color="rgb(8.558655%, 6.204224%, 0.941467%)" offset="0.109375"/><stop stop-opacity="1" stop-color="rgb(8.863831%, 6.425476%, 0.975037%)" offset="0.113281"/><stop stop-opacity="1" stop-color="rgb(9.170532%, 6.648254%, 1.008606%)" offset="0.117188"/><stop stop-opacity="1" stop-color="rgb(9.475708%, 6.869507%, 1.042175%)" offset="0.121094"/><stop stop-opacity="1" stop-color="rgb(9.780884%, 7.090759%, 1.075745%)" offset="0.125"/><stop stop-opacity="1" stop-color="rgb(10.08606%, 7.312012%, 1.109314%)" offset="0.128906"/><stop stop-opacity="1" stop-color="rgb(10.392761%, 7.53479%, 1.142883%)" offset="0.132812"/><stop stop-opacity="1" stop-color="rgb(10.697937%, 7.756042%, 1.176453%)" offset="0.136719"/><stop stop-opacity="1" stop-color="rgb(11.004639%, 7.977295%, 1.210022%)" offset="0.140625"/><stop stop-opacity="1" stop-color="rgb(11.309814%, 8.198547%, 1.243591%)" offset="0.144531"/><stop stop-opacity="1" stop-color="rgb(11.61499%, 8.421326%, 1.277161%)" offset="0.148438"/><stop stop-opacity="1" stop-color="rgb(11.920166%, 8.642578%, 1.31073%)" offset="0.152344"/><stop stop-opacity="1" stop-color="rgb(12.226868%, 8.863831%, 1.344299%)" offset="0.15625"/><stop stop-opacity="1" stop-color="rgb(12.532043%, 9.085083%, 1.377869%)" offset="0.160156"/><stop stop-opacity="1" stop-color="rgb(12.838745%, 9.307861%, 1.411438%)" offset="0.164062"/><stop stop-opacity="1" stop-color="rgb(13.143921%, 9.529114%, 1.445007%)" offset="0.167969"/><stop stop-opacity="1" stop-color="rgb(13.449097%, 9.750366%, 1.478577%)" offset="0.171875"/><stop stop-opacity="1" stop-color="rgb(13.754272%, 9.971619%, 1.512146%)" offset="0.175781"/><stop stop-opacity="1" stop-color="rgb(14.060974%, 10.194397%, 1.547241%)" offset="0.179688"/><stop stop-opacity="1" stop-color="rgb(14.36615%, 10.415649%, 1.580811%)" offset="0.183594"/><stop stop-opacity="1" stop-color="rgb(14.672852%, 10.636902%, 1.61438%)" offset="0.1875"/><stop stop-opacity="1" stop-color="rgb(14.978027%, 10.858154%, 1.647949%)" offset="0.191406"/><stop stop-opacity="1" stop-color="rgb(15.283203%, 11.079407%, 1.681519%)" offset="0.195312"/><stop stop-opacity="1" stop-color="rgb(15.588379%, 11.300659%, 1.715088%)" offset="0.199219"/><stop stop-opacity="1" stop-color="rgb(15.895081%, 11.523438%, 1.748657%)" offset="0.203125"/><stop stop-opacity="1" stop-color="rgb(16.200256%, 11.74469%, 1.782227%)" offset="0.207031"/><stop stop-opacity="1" stop-color="rgb(16.506958%, 11.965942%, 1.815796%)" offset="0.210938"/><stop stop-opacity="1" stop-color="rgb(16.812134%, 12.187195%, 1.849365%)" offset="0.214844"/><stop stop-opacity="1" stop-color="rgb(17.11731%, 12.409973%, 1.882935%)" offset="0.21875"/><stop stop-opacity="1" stop-color="rgb(17.422485%, 12.631226%, 1.916504%)" offset="0.222656"/><stop stop-opacity="1" stop-color="rgb(17.729187%, 12.852478%, 1.950073%)" offset="0.226562"/><stop stop-opacity="1" stop-color="rgb(18.034363%, 13.07373%, 1.983643%)" offset="0.230469"/><stop stop-opacity="1" stop-color="rgb(18.341064%, 13.296509%, 2.017212%)" offset="0.234375"/><stop stop-opacity="1" stop-color="rgb(18.64624%, 13.517761%, 2.050781%)" offset="0.238281"/><stop stop-opacity="1" stop-color="rgb(18.951416%, 13.739014%, 2.084351%)" offset="0.242188"/><stop stop-opacity="1" stop-color="rgb(19.256592%, 13.960266%, 2.11792%)" offset="0.246094"/><stop stop-opacity="1" stop-color="rgb(19.563293%, 14.183044%, 2.151489%)" offset="0.25"/><stop stop-opacity="1" stop-color="rgb(19.868469%, 14.404297%, 2.185059%)" offset="0.253906"/><stop stop-opacity="1" stop-color="rgb(20.175171%, 14.625549%, 2.218628%)" offset="0.257812"/><stop stop-opacity="1" stop-color="rgb(20.480347%, 14.846802%, 2.252197%)" offset="0.261719"/><stop stop-opacity="1" stop-color="rgb(20.785522%, 15.06958%, 2.285767%)" offset="0.265625"/><stop stop-opacity="1" stop-color="rgb(21.090698%, 15.290833%, 2.319336%)" offset="0.269531"/><stop stop-opacity="1" stop-color="rgb(21.3974%, 15.512085%, 2.354431%)" offset="0.273438"/><stop stop-opacity="1" stop-color="rgb(21.702576%, 15.733337%, 2.388%)" offset="0.277344"/><stop stop-opacity="1" stop-color="rgb(22.009277%, 15.956116%, 2.42157%)" offset="0.28125"/><stop stop-opacity="1" stop-color="rgb(22.314453%, 16.177368%, 2.455139%)" offset="0.285156"/><stop stop-opacity="1" stop-color="rgb(22.619629%, 16.398621%, 2.488708%)" offset="0.289063"/><stop stop-opacity="1" stop-color="rgb(22.924805%, 16.619873%, 2.522278%)" offset="0.292969"/><stop stop-opacity="1" stop-color="rgb(23.231506%, 16.842651%, 2.555847%)" offset="0.296875"/><stop stop-opacity="1" stop-color="rgb(23.536682%, 17.063904%, 2.589417%)" offset="0.300781"/><stop stop-opacity="1" stop-color="rgb(23.843384%, 17.285156%, 2.622986%)" offset="0.304688"/><stop stop-opacity="1" stop-color="rgb(24.14856%, 17.506409%, 2.656555%)" offset="0.308594"/><stop stop-opacity="1" stop-color="rgb(24.453735%, 17.729187%, 2.690125%)" offset="0.3125"/><stop stop-opacity="1" stop-color="rgb(24.758911%, 17.950439%, 2.723694%)" offset="0.316406"/><stop stop-opacity="1" stop-color="rgb(25.065613%, 18.171692%, 2.757263%)" offset="0.320313"/><stop stop-opacity="1" stop-color="rgb(25.370789%, 18.392944%, 2.790833%)" offset="0.324219"/><stop stop-opacity="1" stop-color="rgb(25.67749%, 18.615723%, 2.824402%)" offset="0.328125"/><stop stop-opacity="1" stop-color="rgb(25.982666%, 18.836975%, 2.857971%)" offset="0.332031"/><stop stop-opacity="1" stop-color="rgb(26.287842%, 19.058228%, 2.891541%)" offset="0.335938"/><stop stop-opacity="1" stop-color="rgb(26.593018%, 19.27948%, 2.92511%)" offset="0.339844"/><stop stop-opacity="1" stop-color="rgb(26.899719%, 19.502258%, 2.958679%)" offset="0.34375"/><stop stop-opacity="1" stop-color="rgb(27.204895%, 19.723511%, 2.992249%)" offset="0.347656"/><stop stop-opacity="1" stop-color="rgb(27.511597%, 19.944763%, 3.025818%)" offset="0.351563"/><stop stop-opacity="1" stop-color="rgb(27.816772%, 20.166016%, 3.059387%)" offset="0.355469"/><stop stop-opacity="1" stop-color="rgb(28.121948%, 20.388794%, 3.094482%)" offset="0.359375"/><stop stop-opacity="1" stop-color="rgb(28.427124%, 20.610046%, 3.128052%)" offset="0.363281"/><stop stop-opacity="1" stop-color="rgb(28.733826%, 20.831299%, 3.161621%)" offset="0.367188"/><stop stop-opacity="1" stop-color="rgb(29.039001%, 21.052551%, 3.19519%)" offset="0.371094"/><stop stop-opacity="1" stop-color="rgb(29.345703%, 21.27533%, 3.22876%)" offset="0.375"/><stop stop-opacity="1" stop-color="rgb(29.650879%, 21.496582%, 3.262329%)" offset="0.378906"/><stop stop-opacity="1" stop-color="rgb(29.957581%, 21.717834%, 3.295898%)" offset="0.382812"/><stop stop-opacity="1" stop-color="rgb(30.262756%, 21.939087%, 3.329468%)" offset="0.386719"/><stop stop-opacity="1" stop-color="rgb(30.567932%, 22.160339%, 3.363037%)" offset="0.390625"/><stop stop-opacity="1" stop-color="rgb(30.873108%, 22.381592%, 3.396606%)" offset="0.394531"/><stop stop-opacity="1" stop-color="rgb(31.17981%, 22.60437%, 3.430176%)" offset="0.398438"/><stop stop-opacity="1" stop-color="rgb(31.484985%, 22.825623%, 3.463745%)" offset="0.402344"/><stop stop-opacity="1" stop-color="rgb(31.791687%, 23.046875%, 3.497314%)" offset="0.40625"/><stop stop-opacity="1" stop-color="rgb(32.096863%, 23.268127%, 3.530884%)" offset="0.410156"/><stop stop-opacity="1" stop-color="rgb(32.402039%, 23.490906%, 3.564453%)" offset="0.414062"/><stop stop-opacity="1" stop-color="rgb(32.707214%, 23.712158%, 3.598022%)" offset="0.417969"/><stop stop-opacity="1" stop-color="rgb(33.013916%, 23.933411%, 3.631592%)" offset="0.421875"/><stop stop-opacity="1" stop-color="rgb(33.319092%, 24.154663%, 3.665161%)" offset="0.425781"/><stop stop-opacity="1" stop-color="rgb(33.625793%, 24.377441%, 3.69873%)" offset="0.429688"/><stop stop-opacity="1" stop-color="rgb(33.930969%, 24.598694%, 3.7323%)" offset="0.433594"/><stop stop-opacity="1" stop-color="rgb(34.236145%, 24.819946%, 3.765869%)" offset="0.4375"/><stop stop-opacity="1" stop-color="rgb(34.541321%, 25.041199%, 3.799438%)" offset="0.441406"/><stop stop-opacity="1" stop-color="rgb(34.848022%, 25.263977%, 3.834534%)" offset="0.445312"/><stop stop-opacity="1" stop-color="rgb(35.153198%, 25.485229%, 3.868103%)" offset="0.449219"/><stop stop-opacity="1" stop-color="rgb(35.4599%, 25.706482%, 3.901672%)" offset="0.453125"/><stop stop-opacity="1" stop-color="rgb(35.765076%, 25.927734%, 3.935242%)" offset="0.457031"/><stop stop-opacity="1" stop-color="rgb(36.070251%, 26.150513%, 3.968811%)" offset="0.460938"/><stop stop-opacity="1" stop-color="rgb(36.375427%, 26.371765%, 4.00238%)" offset="0.464844"/><stop stop-opacity="1" stop-color="rgb(36.682129%, 26.593018%, 4.03595%)" offset="0.46875"/><stop stop-opacity="1" stop-color="rgb(36.987305%, 26.81427%, 4.069519%)" offset="0.472656"/><stop stop-opacity="1" stop-color="rgb(37.294006%, 27.037048%, 4.103088%)" offset="0.476562"/><stop stop-opacity="1" stop-color="rgb(37.599182%, 27.258301%, 4.136658%)" offset="0.480469"/><stop stop-opacity="1" stop-color="rgb(37.904358%, 27.479553%, 4.170227%)" offset="0.484375"/><stop stop-opacity="1" stop-color="rgb(38.209534%, 27.700806%, 4.203796%)" offset="0.488281"/><stop stop-opacity="1" stop-color="rgb(38.516235%, 27.923584%, 4.237366%)" offset="0.492188"/><stop stop-opacity="1" stop-color="rgb(38.821411%, 28.144836%, 4.270935%)" offset="0.496094"/><stop stop-opacity="1" stop-color="rgb(39.128113%, 28.366089%, 4.304504%)" offset="0.5"/><stop stop-opacity="1" stop-color="rgb(39.433289%, 28.587341%, 4.338074%)" offset="0.503906"/><stop stop-opacity="1" stop-color="rgb(39.738464%, 28.81012%, 4.371643%)" offset="0.507812"/><stop stop-opacity="1" stop-color="rgb(40.04364%, 29.031372%, 4.405212%)" offset="0.511719"/><stop stop-opacity="1" stop-color="rgb(40.350342%, 29.252625%, 4.438782%)" offset="0.515625"/><stop stop-opacity="1" stop-color="rgb(40.655518%, 29.473877%, 4.472351%)" offset="0.519531"/><stop stop-opacity="1" stop-color="rgb(40.962219%, 29.696655%, 4.50592%)" offset="0.523437"/><stop stop-opacity="1" stop-color="rgb(41.267395%, 29.917908%, 4.53949%)" offset="0.527344"/><stop stop-opacity="1" stop-color="rgb(41.572571%, 30.13916%, 4.573059%)" offset="0.53125"/><stop stop-opacity="1" stop-color="rgb(41.877747%, 30.360413%, 4.606628%)" offset="0.535156"/><stop stop-opacity="1" stop-color="rgb(42.184448%, 30.583191%, 4.641724%)" offset="0.539063"/><stop stop-opacity="1" stop-color="rgb(42.489624%, 30.804443%, 4.675293%)" offset="0.542969"/><stop stop-opacity="1" stop-color="rgb(42.796326%, 31.025696%, 4.708862%)" offset="0.546875"/><stop stop-opacity="1" stop-color="rgb(43.101501%, 31.246948%, 4.742432%)" offset="0.550781"/><stop stop-opacity="1" stop-color="rgb(43.406677%, 31.469727%, 4.776001%)" offset="0.554688"/><stop stop-opacity="1" stop-color="rgb(43.711853%, 31.690979%, 4.80957%)" offset="0.558594"/><stop stop-opacity="1" stop-color="rgb(44.018555%, 31.912231%, 4.84314%)" offset="0.5625"/><stop stop-opacity="1" stop-color="rgb(44.32373%, 32.133484%, 4.876709%)" offset="0.566406"/><stop stop-opacity="1" stop-color="rgb(44.630432%, 32.356262%, 4.910278%)" offset="0.570313"/><stop stop-opacity="1" stop-color="rgb(44.935608%, 32.577515%, 4.943848%)" offset="0.574219"/><stop stop-opacity="1" stop-color="rgb(45.240784%, 32.798767%, 4.977417%)" offset="0.578125"/><stop stop-opacity="1" stop-color="rgb(45.545959%, 33.02002%, 5.010986%)" offset="0.582031"/><stop stop-opacity="1" stop-color="rgb(45.852661%, 33.241272%, 5.044556%)" offset="0.585938"/><stop stop-opacity="1" stop-color="rgb(46.157837%, 33.462524%, 5.078125%)" offset="0.589844"/><stop stop-opacity="1" stop-color="rgb(46.464539%, 33.685303%, 5.111694%)" offset="0.59375"/><stop stop-opacity="1" stop-color="rgb(46.769714%, 33.906555%, 5.145264%)" offset="0.597656"/><stop stop-opacity="1" stop-color="rgb(47.07489%, 34.127808%, 5.178833%)" offset="0.601563"/><stop stop-opacity="1" stop-color="rgb(47.380066%, 34.34906%, 5.212402%)" offset="0.605469"/><stop stop-opacity="1" stop-color="rgb(47.686768%, 34.571838%, 5.245972%)" offset="0.609375"/><stop stop-opacity="1" stop-color="rgb(47.991943%, 34.793091%, 5.279541%)" offset="0.613281"/><stop stop-opacity="1" stop-color="rgb(48.298645%, 35.014343%, 5.31311%)" offset="0.617188"/><stop stop-opacity="1" stop-color="rgb(48.603821%, 35.235596%, 5.34668%)" offset="0.621094"/><stop stop-opacity="1" stop-color="rgb(48.908997%, 35.458374%, 5.381775%)" offset="0.625"/><stop stop-opacity="1" stop-color="rgb(49.214172%, 35.679626%, 5.415344%)" offset="0.628906"/><stop stop-opacity="1" stop-color="rgb(49.520874%, 35.900879%, 5.448914%)" offset="0.632812"/><stop stop-opacity="1" stop-color="rgb(49.82605%, 36.122131%, 5.482483%)" offset="0.636719"/><stop stop-opacity="1" stop-color="rgb(50.132751%, 36.34491%, 5.516052%)" offset="0.640625"/><stop stop-opacity="1" stop-color="rgb(50.437927%, 36.566162%, 5.549622%)" offset="0.644531"/><stop stop-opacity="1" stop-color="rgb(50.743103%, 36.787415%, 5.583191%)" offset="0.648438"/><stop stop-opacity="1" stop-color="rgb(51.048279%, 37.008667%, 5.61676%)" offset="0.652344"/><stop stop-opacity="1" stop-color="rgb(51.35498%, 37.231445%, 5.65033%)" offset="0.65625"/><stop stop-opacity="1" stop-color="rgb(51.660156%, 37.452698%, 5.683899%)" offset="0.660156"/><stop stop-opacity="1" stop-color="rgb(51.966858%, 37.67395%, 5.717468%)" offset="0.664062"/><stop stop-opacity="1" stop-color="rgb(52.272034%, 37.895203%, 5.751038%)" offset="0.667969"/><stop stop-opacity="1" stop-color="rgb(52.577209%, 38.117981%, 5.784607%)" offset="0.671875"/><stop stop-opacity="1" stop-color="rgb(52.882385%, 38.339233%, 5.818176%)" offset="0.675781"/><stop stop-opacity="1" stop-color="rgb(53.189087%, 38.560486%, 5.851746%)" offset="0.679688"/><stop stop-opacity="1" stop-color="rgb(53.494263%, 38.781738%, 5.885315%)" offset="0.683594"/><stop stop-opacity="1" stop-color="rgb(53.800964%, 39.004517%, 5.918884%)" offset="0.6875"/><stop stop-opacity="1" stop-color="rgb(54.10614%, 39.225769%, 5.952454%)" offset="0.691406"/><stop stop-opacity="1" stop-color="rgb(54.411316%, 39.447021%, 5.986023%)" offset="0.695313"/><stop stop-opacity="1" stop-color="rgb(54.716492%, 39.668274%, 6.019592%)" offset="0.699219"/><stop stop-opacity="1" stop-color="rgb(55.023193%, 39.891052%, 6.053162%)" offset="0.703125"/><stop stop-opacity="1" stop-color="rgb(55.328369%, 40.112305%, 6.086731%)" offset="0.707031"/><stop stop-opacity="1" stop-color="rgb(55.635071%, 40.333557%, 6.1203%)" offset="0.710938"/><stop stop-opacity="1" stop-color="rgb(55.940247%, 40.55481%, 6.15387%)" offset="0.714844"/><stop stop-opacity="1" stop-color="rgb(56.245422%, 40.777588%, 6.188965%)" offset="0.71875"/><stop stop-opacity="1" stop-color="rgb(56.550598%, 40.99884%, 6.222534%)" offset="0.722656"/><stop stop-opacity="1" stop-color="rgb(56.8573%, 41.220093%, 6.256104%)" offset="0.726562"/><stop stop-opacity="1" stop-color="rgb(57.162476%, 41.441345%, 6.289673%)" offset="0.730469"/><stop stop-opacity="1" stop-color="rgb(57.469177%, 41.664124%, 6.323242%)" offset="0.734375"/><stop stop-opacity="1" stop-color="rgb(57.774353%, 41.885376%, 6.356812%)" offset="0.738281"/><stop stop-opacity="1" stop-color="rgb(58.081055%, 42.106628%, 6.390381%)" offset="0.742188"/><stop stop-opacity="1" stop-color="rgb(58.38623%, 42.327881%, 6.42395%)" offset="0.746094"/><stop stop-opacity="1" stop-color="rgb(58.691406%, 42.550659%, 6.45752%)" offset="0.75"/><stop stop-opacity="1" stop-color="rgb(58.996582%, 42.771912%, 6.491089%)" offset="0.753906"/><stop stop-opacity="1" stop-color="rgb(59.303284%, 42.993164%, 6.524658%)" offset="0.757812"/><stop stop-opacity="1" stop-color="rgb(59.608459%, 43.214417%, 6.558228%)" offset="0.761719"/><stop stop-opacity="1" stop-color="rgb(59.915161%, 43.435669%, 6.591797%)" offset="0.765625"/><stop stop-opacity="1" stop-color="rgb(60.220337%, 43.656921%, 6.625366%)" offset="0.769531"/><stop stop-opacity="1" stop-color="rgb(60.525513%, 43.8797%, 6.658936%)" offset="0.773438"/><stop stop-opacity="1" stop-color="rgb(60.830688%, 44.100952%, 6.692505%)" offset="0.777344"/><stop stop-opacity="1" stop-color="rgb(61.13739%, 44.322205%, 6.726074%)" offset="0.78125"/><stop stop-opacity="1" stop-color="rgb(61.442566%, 44.543457%, 6.759644%)" offset="0.785156"/><stop stop-opacity="1" stop-color="rgb(61.749268%, 44.766235%, 6.793213%)" offset="0.789062"/><stop stop-opacity="1" stop-color="rgb(62.054443%, 44.987488%, 6.826782%)" offset="0.792969"/><stop stop-opacity="1" stop-color="rgb(62.359619%, 45.20874%, 6.860352%)" offset="0.796875"/><stop stop-opacity="1" stop-color="rgb(62.664795%, 45.429993%, 6.893921%)" offset="0.800781"/><stop stop-opacity="1" stop-color="rgb(62.971497%, 45.652771%, 6.929016%)" offset="0.804688"/><stop stop-opacity="1" stop-color="rgb(63.276672%, 45.874023%, 6.962585%)" offset="0.808594"/><stop stop-opacity="1" stop-color="rgb(63.583374%, 46.095276%, 6.996155%)" offset="0.8125"/><stop stop-opacity="1" stop-color="rgb(63.88855%, 46.316528%, 7.029724%)" offset="0.816406"/><stop stop-opacity="1" stop-color="rgb(64.193726%, 46.539307%, 7.063293%)" offset="0.820313"/><stop stop-opacity="1" stop-color="rgb(64.498901%, 46.760559%, 7.096863%)" offset="0.824219"/><stop stop-opacity="1" stop-color="rgb(64.805603%, 46.981812%, 7.130432%)" offset="0.828125"/><stop stop-opacity="1" stop-color="rgb(65.110779%, 47.203064%, 7.164001%)" offset="0.832031"/><stop stop-opacity="1" stop-color="rgb(65.41748%, 47.425842%, 7.197571%)" offset="0.835938"/><stop stop-opacity="1" stop-color="rgb(65.722656%, 47.647095%, 7.23114%)" offset="0.839844"/><stop stop-opacity="1" stop-color="rgb(66.027832%, 47.868347%, 7.264709%)" offset="0.84375"/><stop stop-opacity="1" stop-color="rgb(66.333008%, 48.0896%, 7.298279%)" offset="0.847656"/><stop stop-opacity="1" stop-color="rgb(66.639709%, 48.312378%, 7.331848%)" offset="0.851562"/><stop stop-opacity="1" stop-color="rgb(66.944885%, 48.53363%, 7.365417%)" offset="0.855469"/><stop stop-opacity="1" stop-color="rgb(67.251587%, 48.754883%, 7.398987%)" offset="0.859375"/><stop stop-opacity="1" stop-color="rgb(67.556763%, 48.976135%, 7.432556%)" offset="0.863281"/><stop stop-opacity="1" stop-color="rgb(67.861938%, 49.198914%, 7.466125%)" offset="0.867188"/><stop stop-opacity="1" stop-color="rgb(68.167114%, 49.420166%, 7.499695%)" offset="0.871094"/><stop stop-opacity="1" stop-color="rgb(68.473816%, 49.641418%, 7.533264%)" offset="0.875"/><stop stop-opacity="1" stop-color="rgb(68.778992%, 49.862671%, 7.566833%)" offset="0.878906"/><stop stop-opacity="1" stop-color="rgb(69.085693%, 50.085449%, 7.600403%)" offset="0.882812"/><stop stop-opacity="1" stop-color="rgb(69.390869%, 50.306702%, 7.633972%)" offset="0.886719"/><stop stop-opacity="1" stop-color="rgb(69.696045%, 50.527954%, 7.669067%)" offset="0.890625"/><stop stop-opacity="1" stop-color="rgb(70.001221%, 50.749207%, 7.702637%)" offset="0.894531"/><stop stop-opacity="1" stop-color="rgb(70.307922%, 50.971985%, 7.736206%)" offset="0.898438"/><stop stop-opacity="1" stop-color="rgb(70.613098%, 51.193237%, 7.769775%)" offset="0.902344"/><stop stop-opacity="1" stop-color="rgb(70.9198%, 51.41449%, 7.803345%)" offset="0.90625"/><stop stop-opacity="1" stop-color="rgb(71.224976%, 51.635742%, 7.836914%)" offset="0.910156"/><stop stop-opacity="1" stop-color="rgb(71.530151%, 51.858521%, 7.870483%)" offset="0.914062"/><stop stop-opacity="1" stop-color="rgb(71.835327%, 52.079773%, 7.904053%)" offset="0.917969"/><stop stop-opacity="1" stop-color="rgb(72.142029%, 52.301025%, 7.937622%)" offset="0.921875"/><stop stop-opacity="1" stop-color="rgb(72.447205%, 52.522278%, 7.971191%)" offset="0.925781"/><stop stop-opacity="1" stop-color="rgb(72.753906%, 52.745056%, 8.004761%)" offset="0.929687"/><stop stop-opacity="1" stop-color="rgb(73.059082%, 52.966309%, 8.03833%)" offset="0.933594"/><stop stop-opacity="1" stop-color="rgb(73.364258%, 53.187561%, 8.071899%)" offset="0.9375"/><stop stop-opacity="1" stop-color="rgb(73.669434%, 53.408813%, 8.105469%)" offset="0.941406"/><stop stop-opacity="1" stop-color="rgb(73.976135%, 53.631592%, 8.139038%)" offset="0.945313"/><stop stop-opacity="1" stop-color="rgb(74.281311%, 53.852844%, 8.172607%)" offset="0.949219"/><stop stop-opacity="1" stop-color="rgb(74.588013%, 54.074097%, 8.206177%)" offset="0.953125"/><stop stop-opacity="1" stop-color="rgb(74.893188%, 54.295349%, 8.239746%)" offset="0.957031"/><stop stop-opacity="1" stop-color="rgb(75.198364%, 54.516602%, 8.273315%)" offset="0.960938"/><stop stop-opacity="1" stop-color="rgb(75.50354%, 54.737854%, 8.306885%)" offset="0.964844"/><stop stop-opacity="1" stop-color="rgb(75.810242%, 54.960632%, 8.340454%)" offset="0.96875"/><stop stop-opacity="1" stop-color="rgb(76.115417%, 55.181885%, 8.374023%)" offset="0.972656"/><stop stop-opacity="1" stop-color="rgb(76.422119%, 55.403137%, 8.407593%)" offset="0.976562"/><stop stop-opacity="1" stop-color="rgb(76.727295%, 55.62439%, 8.441162%)" offset="0.980469"/><stop stop-opacity="1" stop-color="rgb(77.032471%, 55.847168%, 8.476257%)" offset="0.984375"/><stop stop-opacity="1" stop-color="rgb(77.337646%, 56.06842%, 8.509827%)" offset="0.988281"/><stop stop-opacity="1" stop-color="rgb(77.644348%, 56.289673%, 8.543396%)" offset="0.992188"/><stop stop-opacity="1" stop-color="rgb(77.949524%, 56.510925%, 8.576965%)" offset="0.996094"/><stop stop-opacity="1" stop-color="rgb(78.256226%, 56.733704%, 8.610535%)" offset="1"/></linearGradient></defs><g clip-path="url(#faa0cb834c)"><g clip-path="url(#b8dca55e1f)"><g clip-path="url(#3dbb171a6a)"><path fill="url(#be43e45275)" d="M 4.570312 11 L 4.570312 65.261719 L 49.910156 65.261719 L 49.910156 11 Z M 4.570312 11 " fill-rule="nonzero"/></g></g></g><g fill="#ff751f" fill-opacity="1"><g transform="translate(17.484014, 30.51891)"><g><path d="M 19.125 -17.234375 C 19.21875 -17.234375 19.296875 -17.195312 19.359375 -17.125 C 19.429688 -17.0625 19.46875 -16.984375 19.46875 -16.890625 C 19.46875 -16.796875 19.429688 -16.71875 19.359375 -16.65625 C 19.296875 -16.59375 19.21875 -16.5625 19.125 -16.5625 C 18.207031 -16.539062 17.160156 -16.460938 15.984375 -16.328125 C 14.804688 -16.191406 13.585938 -16.015625 12.328125 -15.796875 C 11.078125 -15.578125 9.867188 -15.316406 8.703125 -15.015625 C 8.515625 -14.265625 8.304688 -13.441406 8.078125 -12.546875 C 7.847656 -11.648438 7.601562 -10.710938 7.34375 -9.734375 C 7.164062 -9.015625 6.972656 -8.269531 6.765625 -7.5 C 6.566406 -6.738281 6.367188 -5.972656 6.171875 -5.203125 C 6.992188 -5.410156 7.820312 -5.613281 8.65625 -5.8125 C 9.488281 -6.007812 10.269531 -6.179688 11 -6.328125 C 11.738281 -6.472656 12.375 -6.582031 12.90625 -6.65625 C 13.4375 -6.738281 13.804688 -6.773438 14.015625 -6.765625 C 14.109375 -6.753906 14.1875 -6.710938 14.25 -6.640625 C 14.3125 -6.578125 14.34375 -6.5 14.34375 -6.40625 C 14.332031 -6.3125 14.289062 -6.234375 14.21875 -6.171875 C 14.15625 -6.109375 14.078125 -6.078125 13.984375 -6.078125 C 13.742188 -6.097656 13.289062 -6.050781 12.625 -5.9375 C 11.957031 -5.820312 11.160156 -5.664062 10.234375 -5.46875 C 9.304688 -5.269531 8.320312 -5.039062 7.28125 -4.78125 C 6.832031 -4.664062 6.398438 -4.554688 5.984375 -4.453125 C 5.671875 -3.179688 5.382812 -1.953125 5.125 -0.765625 C 4.863281 0.410156 4.648438 1.5 4.484375 2.5 C 4.316406 3.507812 4.226562 4.359375 4.21875 5.046875 C 4.21875 5.335938 4.242188 5.628906 4.296875 5.921875 C 4.347656 6.210938 4.46875 6.398438 4.65625 6.484375 C 4.882812 6.578125 5.1875 6.539062 5.5625 6.375 C 5.9375 6.207031 6.351562 5.953125 6.8125 5.609375 C 7.28125 5.265625 7.757812 4.875 8.25 4.4375 C 8.738281 4.007812 9.210938 3.578125 9.671875 3.140625 C 10.128906 2.703125 10.535156 2.3125 10.890625 1.96875 C 10.984375 1.875 11.078125 1.78125 11.171875 1.6875 C 11.273438 1.59375 11.367188 1.5 11.453125 1.40625 L 11.75 1.125 C 11.925781 0.957031 12.097656 0.789062 12.265625 0.625 C 12.429688 0.46875 12.582031 0.332031 12.71875 0.21875 C 12.894531 0.0507812 13.0625 -0.0820312 13.21875 -0.1875 C 13.375 -0.289062 13.515625 -0.273438 13.640625 -0.140625 C 13.796875 -0.015625 13.8125 0.15625 13.6875 0.375 C 13.570312 0.59375 13.34375 0.929688 13 1.390625 C 12.9375 1.472656 12.859375 1.519531 12.765625 1.53125 C 12.671875 1.539062 12.585938 1.519531 12.515625 1.46875 C 12.492188 1.457031 12.472656 1.4375 12.453125 1.40625 C 12.410156 1.445312 12.367188 1.484375 12.328125 1.515625 C 12.296875 1.554688 12.265625 1.59375 12.234375 1.625 L 11.9375 1.90625 C 11.851562 1.988281 11.757812 2.078125 11.65625 2.171875 C 11.5625 2.273438 11.46875 2.367188 11.375 2.453125 C 10.476562 3.316406 9.628906 4.109375 8.828125 4.828125 C 8.035156 5.546875 7.300781 6.125 6.625 6.5625 C 5.957031 7 5.378906 7.21875 4.890625 7.21875 C 4.703125 7.21875 4.535156 7.179688 4.390625 7.109375 C 3.796875 6.859375 3.507812 6.171875 3.53125 5.046875 C 3.539062 4.347656 3.625 3.515625 3.78125 2.546875 C 3.9375 1.578125 4.140625 0.515625 4.390625 -0.640625 C 4.640625 -1.796875 4.914062 -2.992188 5.21875 -4.234375 C 3.988281 -3.890625 3.035156 -3.585938 2.359375 -3.328125 C 1.679688 -3.078125 1.273438 -2.890625 1.140625 -2.765625 C 1.078125 -2.703125 1 -2.671875 0.90625 -2.671875 C 0.8125 -2.671875 0.726562 -2.707031 0.65625 -2.78125 C 0.601562 -2.84375 0.578125 -2.921875 0.578125 -3.015625 C 0.578125 -3.109375 0.609375 -3.191406 0.671875 -3.265625 C 0.816406 -3.410156 1.117188 -3.578125 1.578125 -3.765625 C 2.035156 -3.953125 2.597656 -4.148438 3.265625 -4.359375 C 3.929688 -4.566406 4.644531 -4.78125 5.40625 -5 C 5.613281 -5.820312 5.828125 -6.644531 6.046875 -7.46875 C 6.265625 -8.300781 6.472656 -9.113281 6.671875 -9.90625 C 6.910156 -10.800781 7.132812 -11.664062 7.34375 -12.5 C 7.5625 -13.332031 7.765625 -14.109375 7.953125 -14.828125 C 6.898438 -14.535156 5.941406 -14.234375 5.078125 -13.921875 C 4.210938 -13.609375 3.503906 -13.285156 2.953125 -12.953125 C 2.410156 -12.617188 2.09375 -12.285156 2 -11.953125 C 1.976562 -11.898438 1.976562 -11.789062 2 -11.625 C 2.019531 -11.457031 2.21875 -11.25 2.59375 -11 C 2.664062 -10.9375 2.707031 -10.859375 2.71875 -10.765625 C 2.738281 -10.679688 2.722656 -10.597656 2.671875 -10.515625 C 2.609375 -10.421875 2.515625 -10.375 2.390625 -10.375 C 2.316406 -10.375 2.253906 -10.394531 2.203125 -10.4375 C 1.722656 -10.75 1.441406 -11.054688 1.359375 -11.359375 C 1.285156 -11.671875 1.28125 -11.929688 1.34375 -12.140625 C 1.457031 -12.523438 1.734375 -12.882812 2.171875 -13.21875 C 2.609375 -13.550781 3.148438 -13.859375 3.796875 -14.140625 C 4.441406 -14.429688 5.140625 -14.695312 5.890625 -14.9375 C 6.640625 -15.1875 7.382812 -15.40625 8.125 -15.59375 C 8.195312 -15.882812 8.253906 -16.140625 8.296875 -16.359375 C 8.316406 -16.453125 8.367188 -16.519531 8.453125 -16.5625 C 8.535156 -16.613281 8.617188 -16.632812 8.703125 -16.625 C 8.796875 -16.601562 8.867188 -16.550781 8.921875 -16.46875 C 8.972656 -16.394531 8.988281 -16.3125 8.96875 -16.21875 C 8.945312 -16.09375 8.914062 -15.941406 8.875 -15.765625 C 10.03125 -16.054688 11.226562 -16.304688 12.46875 -16.515625 C 13.71875 -16.734375 14.914062 -16.90625 16.0625 -17.03125 C 17.207031 -17.15625 18.226562 -17.222656 19.125 -17.234375 Z M 19.125 -17.234375 "/></g></g></g><g fill="#ff751f" fill-opacity="1"><g transform="translate(32.621598, 30.51891)"><g><path d="M 5.234375 -4.078125 C 5.316406 -4.023438 5.363281 -3.953125 5.375 -3.859375 C 5.394531 -3.765625 5.382812 -3.675781 5.34375 -3.59375 C 5.113281 -3.226562 4.828125 -2.828125 4.484375 -2.390625 C 4.140625 -1.953125 3.765625 -1.53125 3.359375 -1.125 C 2.953125 -0.726562 2.546875 -0.398438 2.140625 -0.140625 C 1.742188 0.117188 1.378906 0.25 1.046875 0.25 C 0.910156 0.25 0.785156 0.222656 0.671875 0.171875 C 0.273438 -0.00390625 0.0546875 -0.429688 0.015625 -1.109375 C -0.0234375 -1.796875 0.109375 -2.765625 0.421875 -4.015625 C 0.453125 -4.109375 0.507812 -4.175781 0.59375 -4.21875 C 0.675781 -4.269531 0.757812 -4.285156 0.84375 -4.265625 C 0.9375 -4.242188 1.003906 -4.191406 1.046875 -4.109375 C 1.097656 -4.023438 1.113281 -3.941406 1.09375 -3.859375 C 0.894531 -3.097656 0.769531 -2.492188 0.71875 -2.046875 C 0.675781 -1.597656 0.671875 -1.257812 0.703125 -1.03125 C 0.734375 -0.8125 0.773438 -0.660156 0.828125 -0.578125 C 0.890625 -0.503906 0.929688 -0.46875 0.953125 -0.46875 C 1.097656 -0.394531 1.320312 -0.441406 1.625 -0.609375 C 1.925781 -0.785156 2.257812 -1.039062 2.625 -1.375 C 2.988281 -1.71875 3.359375 -2.113281 3.734375 -2.5625 C 4.109375 -3.007812 4.445312 -3.476562 4.75 -3.96875 C 4.8125 -4.050781 4.882812 -4.097656 4.96875 -4.109375 C 5.0625 -4.128906 5.148438 -4.117188 5.234375 -4.078125 Z M 1.015625 -5.5 C 0.773438 -5.507812 0.648438 -5.578125 0.640625 -5.703125 C 0.640625 -5.828125 0.695312 -5.953125 0.8125 -6.078125 C 0.925781 -6.210938 1.039062 -6.304688 1.15625 -6.359375 C 1.351562 -6.421875 1.492188 -6.410156 1.578125 -6.328125 C 1.671875 -6.242188 1.710938 -6.132812 1.703125 -6 C 1.703125 -5.863281 1.644531 -5.742188 1.53125 -5.640625 C 1.414062 -5.535156 1.242188 -5.488281 1.015625 -5.5 Z M 1.015625 -5.5 "/></g></g></g><g fill="#000000" fill-opacity="1"><g transform="translate(15.114734, 55.047927)"><g><path d="M 14.515625 -4.15625 C 14.597656 -4.125 14.65625 -4.0625 14.6875 -3.96875 C 14.71875 -3.882812 14.71875 -3.800781 14.6875 -3.71875 C 13.488281 -1.15625 12.300781 1.007812 11.125 2.78125 C 9.945312 4.5625 8.816406 5.910156 7.734375 6.828125 C 6.648438 7.753906 5.640625 8.21875 4.703125 8.21875 C 4.421875 8.21875 4.148438 8.175781 3.890625 8.09375 C 3.242188 7.894531 2.695312 7.46875 2.25 6.8125 C 1.8125 6.164062 1.472656 5.328125 1.234375 4.296875 C 1.003906 3.273438 0.890625 2.109375 0.890625 0.796875 C 0.890625 -0.515625 1.015625 -1.941406 1.265625 -3.484375 C 1.429688 -4.515625 1.671875 -5.613281 1.984375 -6.78125 C 2.296875 -7.957031 2.644531 -9.097656 3.03125 -10.203125 C 3.257812 -10.816406 3.53125 -11.488281 3.84375 -12.21875 C 4.164062 -12.957031 4.519531 -13.679688 4.90625 -14.390625 C 5.300781 -15.109375 5.738281 -15.753906 6.21875 -16.328125 C 6.59375 -16.785156 6.929688 -17.109375 7.234375 -17.296875 C 7.546875 -17.484375 7.8125 -17.582031 8.03125 -17.59375 C 8.257812 -17.601562 8.453125 -17.570312 8.609375 -17.5 C 9.003906 -17.3125 9.28125 -16.921875 9.4375 -16.328125 C 9.601562 -15.734375 9.6875 -14.992188 9.6875 -14.109375 C 9.6875 -13.222656 9.625 -12.25 9.5 -11.1875 C 9.375 -10.132812 9.207031 -9.046875 9 -7.921875 C 8.789062 -6.796875 8.566406 -5.695312 8.328125 -4.625 C 8.296875 -4.539062 8.238281 -4.472656 8.15625 -4.421875 C 8.070312 -4.367188 7.988281 -4.351562 7.90625 -4.375 C 7.8125 -4.394531 7.738281 -4.441406 7.6875 -4.515625 C 7.632812 -4.597656 7.617188 -4.6875 7.640625 -4.78125 C 8.109375 -6.84375 8.445312 -8.613281 8.65625 -10.09375 C 8.863281 -11.582031 8.972656 -12.804688 8.984375 -13.765625 C 8.992188 -14.734375 8.9375 -15.46875 8.8125 -15.96875 C 8.6875 -16.46875 8.515625 -16.769531 8.296875 -16.875 C 8.128906 -16.957031 7.910156 -16.910156 7.640625 -16.734375 C 7.367188 -16.554688 7.070312 -16.273438 6.75 -15.890625 C 6.300781 -15.347656 5.867188 -14.703125 5.453125 -13.953125 C 5.035156 -13.203125 4.644531 -12.378906 4.28125 -11.484375 C 3.914062 -10.597656 3.582031 -9.6875 3.28125 -8.75 C 2.976562 -7.8125 2.710938 -6.882812 2.484375 -5.96875 C 2.253906 -5.050781 2.078125 -4.1875 1.953125 -3.375 C 1.710938 -1.9375 1.585938 -0.585938 1.578125 0.671875 C 1.578125 1.941406 1.679688 3.078125 1.890625 4.078125 C 2.097656 5.003906 2.390625 5.753906 2.765625 6.328125 C 3.148438 6.910156 3.597656 7.273438 4.109375 7.421875 C 5.234375 7.785156 6.597656 7.132812 8.203125 5.46875 C 10.078125 3.5 12.03125 0.34375 14.0625 -4 C 14.09375 -4.082031 14.148438 -4.140625 14.234375 -4.171875 C 14.328125 -4.210938 14.421875 -4.207031 14.515625 -4.15625 Z M 14.515625 -4.15625 "/></g></g></g><g fill="#000000" fill-opacity="1"><g transform="translate(28.895656, 55.047927)"><g><path d="M 6.03125 -3.984375 C 6.113281 -3.929688 6.160156 -3.859375 6.171875 -3.765625 C 6.191406 -3.671875 6.175781 -3.585938 6.125 -3.515625 C 5.425781 -2.535156 4.785156 -1.726562 4.203125 -1.09375 C 3.617188 -0.457031 3.035156 0.0664062 2.453125 0.484375 C 2.003906 0.796875 1.566406 0.953125 1.140625 0.953125 C 0.804688 0.953125 0.515625 0.859375 0.265625 0.671875 C 0.0976562 0.554688 -0.0625 0.347656 -0.21875 0.046875 C -0.382812 -0.253906 -0.472656 -0.691406 -0.484375 -1.265625 C -0.492188 -1.847656 -0.347656 -2.609375 -0.046875 -3.546875 C -0.046875 -3.546875 -0.046875 -3.554688 -0.046875 -3.578125 C 0.304688 -4.710938 0.722656 -5.582031 1.203125 -6.1875 C 1.679688 -6.789062 2.097656 -7.097656 2.453125 -7.109375 C 2.722656 -7.117188 2.898438 -7 2.984375 -6.75 C 3.109375 -6.40625 2.953125 -5.914062 2.515625 -5.28125 C 2.078125 -4.644531 1.429688 -3.96875 0.578125 -3.25 C 0.304688 -2.414062 0.175781 -1.765625 0.1875 -1.296875 C 0.207031 -0.828125 0.273438 -0.488281 0.390625 -0.28125 C 0.515625 -0.0703125 0.609375 0.0625 0.671875 0.125 C 1.035156 0.382812 1.492188 0.3125 2.046875 -0.09375 C 2.597656 -0.46875 3.148438 -0.960938 3.703125 -1.578125 C 4.265625 -2.191406 4.878906 -2.96875 5.546875 -3.90625 C 5.609375 -3.976562 5.6875 -4.023438 5.78125 -4.046875 C 5.875 -4.066406 5.957031 -4.046875 6.03125 -3.984375 Z M 2.328125 -6.359375 C 2.191406 -6.273438 2.007812 -6.097656 1.78125 -5.828125 C 1.5625 -5.554688 1.332031 -5.164062 1.09375 -4.65625 C 1.519531 -5.070312 1.820312 -5.425781 2 -5.71875 C 2.175781 -6.007812 2.285156 -6.222656 2.328125 -6.359375 Z M 2.328125 -6.359375 "/></g></g></g><g fill="#000000" fill-opacity="1"><g transform="translate(34.090274, 55.047927)"><g><path d="M 5.25 -16.734375 C 5.40625 -16.503906 5.40625 -16.046875 5.25 -15.359375 C 5.101562 -14.671875 4.796875 -13.816406 4.328125 -12.796875 C 3.867188 -11.773438 3.253906 -10.644531 2.484375 -9.40625 C 2.472656 -9.394531 2.460938 -9.382812 2.453125 -9.375 C 2.140625 -8.113281 1.832031 -6.828125 1.53125 -5.515625 C 1.226562 -4.203125 0.9375 -2.914062 0.65625 -1.65625 C 0.382812 -0.394531 0.140625 0.789062 -0.078125 1.90625 C -0.304688 3.019531 -0.5 4.007812 -0.65625 4.875 C -0.820312 5.738281 -0.941406 6.4375 -1.015625 6.96875 C -1.003906 6.96875 -0.992188 6.96875 -0.984375 6.96875 C -0.890625 7 -0.820312 7.054688 -0.78125 7.140625 C -0.738281 7.222656 -0.734375 7.3125 -0.765625 7.40625 C -0.847656 7.632812 -0.929688 7.835938 -1.015625 8.015625 C -1.109375 8.203125 -1.234375 8.296875 -1.390625 8.296875 C -1.429688 8.296875 -1.472656 8.289062 -1.515625 8.28125 C -1.617188 8.25 -1.695312 8.175781 -1.75 8.0625 C -1.800781 7.945312 -1.804688 7.71875 -1.765625 7.375 C -1.734375 7.039062 -1.65625 6.523438 -1.53125 5.828125 C -1.320312 4.535156 -1.003906 2.851562 -0.578125 0.78125 C -0.265625 -0.664062 0.0546875 -2.140625 0.390625 -3.640625 C 0.734375 -5.148438 1.070312 -6.601562 1.40625 -8 C 1.738281 -9.40625 2.0625 -10.679688 2.375 -11.828125 C 2.4375 -12.046875 2.523438 -12.359375 2.640625 -12.765625 C 2.765625 -13.171875 2.898438 -13.601562 3.046875 -14.0625 C 3.203125 -14.53125 3.375 -14.976562 3.5625 -15.40625 C 3.757812 -15.84375 3.957031 -16.195312 4.15625 -16.46875 C 4.363281 -16.75 4.566406 -16.910156 4.765625 -16.953125 C 4.972656 -16.984375 5.132812 -16.910156 5.25 -16.734375 Z M 3.078125 -11.765625 C 3.640625 -12.835938 4.035156 -13.726562 4.265625 -14.4375 C 4.503906 -15.15625 4.640625 -15.675781 4.671875 -16 C 4.503906 -15.757812 4.28125 -15.304688 4 -14.640625 C 3.71875 -13.984375 3.410156 -13.023438 3.078125 -11.765625 Z M 3.078125 -11.765625 "/></g></g></g><g fill="#000000" fill-opacity="1"><g transform="translate(36.803611, 55.047927)"><g><path d="M 5.25 -16.734375 C 5.40625 -16.503906 5.40625 -16.046875 5.25 -15.359375 C 5.101562 -14.671875 4.796875 -13.816406 4.328125 -12.796875 C 3.867188 -11.773438 3.253906 -10.644531 2.484375 -9.40625 C 2.472656 -9.394531 2.460938 -9.382812 2.453125 -9.375 C 2.140625 -8.113281 1.832031 -6.828125 1.53125 -5.515625 C 1.226562 -4.203125 0.9375 -2.914062 0.65625 -1.65625 C 0.382812 -0.394531 0.140625 0.789062 -0.078125 1.90625 C -0.304688 3.019531 -0.5 4.007812 -0.65625 4.875 C -0.820312 5.738281 -0.941406 6.4375 -1.015625 6.96875 C -1.003906 6.96875 -0.992188 6.96875 -0.984375 6.96875 C -0.890625 7 -0.820312 7.054688 -0.78125 7.140625 C -0.738281 7.222656 -0.734375 7.3125 -0.765625 7.40625 C -0.847656 7.632812 -0.929688 7.835938 -1.015625 8.015625 C -1.109375 8.203125 -1.234375 8.296875 -1.390625 8.296875 C -1.429688 8.296875 -1.472656 8.289062 -1.515625 8.28125 C -1.617188 8.25 -1.695312 8.175781 -1.75 8.0625 C -1.800781 7.945312 -1.804688 7.71875 -1.765625 7.375 C -1.734375 7.039062 -1.65625 6.523438 -1.53125 5.828125 C -1.320312 4.535156 -1.003906 2.851562 -0.578125 0.78125 C -0.265625 -0.664062 0.0546875 -2.140625 0.390625 -3.640625 C 0.734375 -5.148438 1.070312 -6.601562 1.40625 -8 C 1.738281 -9.40625 2.0625 -10.679688 2.375 -11.828125 C 2.4375 -12.046875 2.523438 -12.359375 2.640625 -12.765625 C 2.765625 -13.171875 2.898438 -13.601562 3.046875 -14.0625 C 3.203125 -14.53125 3.375 -14.976562 3.5625 -15.40625 C 3.757812 -15.84375 3.957031 -16.195312 4.15625 -16.46875 C 4.363281 -16.75 4.566406 -16.910156 4.765625 -16.953125 C 4.972656 -16.984375 5.132812 -16.910156 5.25 -16.734375 Z M 3.078125 -11.765625 C 3.640625 -12.835938 4.035156 -13.726562 4.265625 -14.4375 C 4.503906 -15.15625 4.640625 -15.675781 4.671875 -16 C 4.503906 -15.757812 4.28125 -15.304688 4 -14.640625 C 3.71875 -13.984375 3.410156 -13.023438 3.078125 -11.765625 Z M 3.078125 -11.765625 "/></g></g></g></svg>